<svg width="163" height="73" viewBox="0 0 163 73" fill="none" xmlns="http://www.w3.org/2000/svg">
<path d="M2.46814 20.005L9.46813 20.005L36.9681 60.505L29.4681 60.505L2.46814 20.005Z" fill="black"/>
<path d="M48.8486 3.75647C48.9036 3.67713 48.8139 3.57785 48.7294 3.62446V3.62446C40.904 7.94004 34.1835 14.0081 29.094 21.3538L1.96795 60.505L10.167 59.5783L48.8486 3.75647Z" fill="black"/>
<path d="M48.8486 3.75647C48.9036 3.67713 48.8139 3.57785 48.7294 3.62446V3.62446C40.904 7.94004 34.1835 14.0081 29.094 21.3538L1.96795 60.505L10.167 59.5783L48.8486 3.75647Z" fill="black"/>
<path d="M48.1484 60V28.32H67.2224V33.622H53.4504V41.52H64.5824V46.8H53.4504V60H48.1484ZM81.0291 60.66C78.6531 60.66 76.5777 60.1247 74.8031 59.054C73.0284 57.9833 71.6497 56.5093 70.6671 54.632C69.6991 52.74 69.2151 50.5693 69.2151 48.12C69.2151 45.6267 69.7137 43.4413 70.7111 41.564C71.7084 39.6867 73.0944 38.22 74.8691 37.164C76.6437 36.108 78.6971 35.58 81.0291 35.58C83.4197 35.58 85.5024 36.1153 87.2771 37.186C89.0517 38.2567 90.4304 39.738 91.4131 41.63C92.3957 43.5073 92.8871 45.6707 92.8871 48.12C92.8871 50.584 92.3884 52.762 91.3911 54.654C90.4084 56.5313 89.0297 58.0053 87.2551 59.076C85.4804 60.132 83.4051 60.66 81.0291 60.66ZM81.0291 55.688C83.1411 55.688 84.7104 54.984 85.7371 53.576C86.7637 52.168 87.2771 50.3493 87.2771 48.12C87.2771 45.8173 86.7564 43.984 85.7151 42.62C84.6737 41.2413 83.1117 40.552 81.0291 40.552C79.6064 40.552 78.4331 40.8747 77.5091 41.52C76.5997 42.1507 75.9251 43.038 75.4851 44.182C75.0451 45.3113 74.8251 46.624 74.8251 48.12C74.8251 50.4227 75.3457 52.2633 76.3871 53.642C77.4431 55.006 78.9904 55.688 81.0291 55.688ZM97.7343 60V36.24H102.42V42.026L101.848 41.278C102.142 40.486 102.53 39.7673 103.014 39.122C103.513 38.462 104.107 37.9193 104.796 37.494C105.383 37.098 106.028 36.79 106.732 36.57C107.451 36.3353 108.184 36.196 108.932 36.152C109.68 36.0933 110.406 36.1227 111.11 36.24V41.19C110.406 40.9847 109.592 40.9187 108.668 40.992C107.759 41.0653 106.938 41.322 106.204 41.762C105.471 42.158 104.87 42.664 104.4 43.28C103.946 43.896 103.608 44.6 103.388 45.392C103.168 46.1693 103.058 47.0127 103.058 47.922V60H97.7343ZM125.197 60.66C122.747 60.66 120.657 60.1173 118.927 59.032C117.196 57.932 115.869 56.436 114.945 54.544C114.035 52.652 113.573 50.5107 113.559 48.12C113.573 45.6853 114.05 43.5293 114.989 41.652C115.942 39.76 117.291 38.2787 119.037 37.208C120.782 36.1227 122.857 35.58 125.263 35.58C127.961 35.58 130.242 36.262 132.105 37.626C133.982 38.9753 135.207 40.8233 135.779 43.17L130.499 44.6C130.088 43.324 129.406 42.334 128.453 41.63C127.499 40.9113 126.414 40.552 125.197 40.552C123.818 40.552 122.681 40.882 121.787 41.542C120.892 42.1873 120.232 43.082 119.807 44.226C119.381 45.37 119.169 46.668 119.169 48.12C119.169 50.3787 119.675 52.2047 120.687 53.598C121.699 54.9913 123.202 55.688 125.197 55.688C126.605 55.688 127.712 55.3653 128.519 54.72C129.34 54.0747 129.956 53.1433 130.367 51.926L135.779 53.136C135.045 55.556 133.762 57.4187 131.929 58.724C130.095 60.0147 127.851 60.66 125.197 60.66ZM150.345 60.66C147.94 60.66 145.828 60.1393 144.009 59.098C142.19 58.0567 140.768 56.612 139.741 54.764C138.729 52.916 138.223 50.7893 138.223 48.384C138.223 45.788 138.722 43.5367 139.719 41.63C140.716 39.7087 142.102 38.22 143.877 37.164C145.652 36.108 147.705 35.58 150.037 35.58C152.501 35.58 154.591 36.1593 156.307 37.318C158.038 38.462 159.321 40.0827 160.157 42.18C160.993 44.2773 161.308 46.7487 161.103 49.594H155.845V47.658C155.83 45.0767 155.376 43.192 154.481 42.004C153.586 40.816 152.178 40.222 150.257 40.222C148.086 40.222 146.473 40.8967 145.417 42.246C144.361 43.5807 143.833 45.5387 143.833 48.12C143.833 50.5253 144.361 52.388 145.417 53.708C146.473 55.028 148.013 55.688 150.037 55.688C151.342 55.688 152.464 55.402 153.403 54.83C154.356 54.2433 155.09 53.4 155.603 52.3L160.839 53.884C159.93 56.0253 158.522 57.69 156.615 58.878C154.723 60.066 152.633 60.66 150.345 60.66ZM142.161 49.594V45.59H158.507V49.594H142.161Z" fill="black"/>
</svg>
